<svg width="21" height="22" viewBox="0 0 21 22" fill="none" xmlns="http://www.w3.org/2000/svg">
<path d="M4.92969 3.91016H16.5703C17.0391 3.91016 17.4362 4.07292 17.7617 4.39844C18.0872 4.72396 18.25 5.12109 18.25 5.58984V15.5898C18.25 16.0586 18.0872 16.4557 17.7617 16.7812C17.4362 17.1068 17.0391 17.2695 16.5703 17.2695H4.92969C4.46094 17.2695 4.0638 17.1068 3.73828 16.7812C3.41276 16.4557 3.25 16.0586 3.25 15.5898V5.58984C3.25 5.12109 3.41276 4.72396 3.73828 4.39844C4.0638 4.07292 4.46094 3.91016 4.92969 3.91016ZM4.92969 7.26953V10.5898H9.92969V7.26953H4.92969ZM11.5703 7.26953V10.5898H16.5703V7.26953H11.5703ZM4.92969 12.2695V15.5898H9.92969V12.2695H4.92969ZM11.5703 12.2695V15.5898H16.5703V12.2695H11.5703Z" fill="#B66DFF"/>
</svg>
