<svg width="24" height="21" viewBox="0 0 24 21" fill="none" xmlns="http://www.w3.org/2000/svg">
<path d="M11.98 17.0696C10.7821 17.0696 9.66878 16.7701 8.64014 16.1711C7.61149 15.5722 6.79769 14.7584 6.19873 13.7297C5.59977 12.7011 5.30029 11.5878 5.30029 10.3899C5.30029 9.19198 5.59977 8.07869 6.19873 7.05005C6.79769 6.0214 7.61149 5.2076 8.64014 4.60864C9.66878 4.00968 10.7821 3.71021 11.98 3.71021C13.1779 3.71021 14.2912 4.00968 15.3198 4.60864C16.3485 5.2076 17.1623 6.0214 17.7612 7.05005C18.3602 8.07869 18.6597 9.19198 18.6597 10.3899C18.6597 11.5878 18.3602 12.7011 17.7612 13.7297C17.1623 14.7584 16.3485 15.5722 15.3198 16.1711C14.2912 16.7701 13.1779 17.0696 11.98 17.0696ZM11.98 2.06958C10.4696 2.06958 9.07633 2.44067 7.80029 3.18286C6.52425 3.92505 5.51514 4.93416 4.77295 6.21021C4.03076 7.48625 3.65967 8.87948 3.65967 10.3899C3.65967 11.9003 4.03076 13.2935 4.77295 14.5696C5.51514 15.8456 6.52425 16.8547 7.80029 17.5969C9.07633 18.3391 10.4696 18.7102 11.98 18.7102C13.4904 18.7102 14.8836 18.3391 16.1597 17.5969C17.4357 16.8547 18.4448 15.8456 19.187 14.5696C19.9292 13.2935 20.3003 11.9003 20.3003 10.3899C20.3003 8.87948 19.9292 7.48625 19.187 6.21021C18.4448 4.93416 17.4357 3.92505 16.1597 3.18286C14.8836 2.44067 13.4904 2.06958 11.98 2.06958ZM14.1284 7.06958L11.98 9.21802L9.83154 7.06958L8.65967 8.24146L10.8081 10.3899L8.65967 12.5383L9.83154 13.7102L11.98 11.5618L14.1284 13.7102L15.3003 12.5383L13.1519 10.3899L15.3003 8.24146L14.1284 7.06958Z" fill="#B66DFF"/>
</svg>
