<svg width="21" height="22" viewBox="0 0 21 22" fill="none" xmlns="http://www.w3.org/2000/svg">
<path d="M10.25 17.2695C9.05208 17.2695 7.9388 16.9701 6.91016 16.3711C5.88151 15.7721 5.06771 14.9583 4.46875 13.9297C3.86979 12.901 3.57031 11.7878 3.57031 10.5898C3.57031 9.39193 3.86979 8.27865 4.46875 7.25C5.06771 6.22135 5.88151 5.40755 6.91016 4.80859C7.9388 4.20964 9.05208 3.91016 10.25 3.91016C11.4479 3.91016 12.5612 4.20964 13.5898 4.80859C14.6185 5.40755 15.4323 6.22135 16.0312 7.25C16.6302 8.27865 16.9297 9.39193 16.9297 10.5898C16.9297 11.7878 16.6302 12.901 16.0312 13.9297C15.4323 14.9583 14.6185 15.7721 13.5898 16.3711C12.5612 16.9701 11.4479 17.2695 10.25 17.2695ZM10.25 2.26953C9.15625 2.26953 8.09505 2.47787 7.06641 2.89453C6.03776 3.3112 5.13281 3.91016 4.35156 4.69141C3.57031 5.47266 2.97135 6.3776 2.55469 7.40625C2.13802 8.4349 1.92969 9.49609 1.92969 10.5898C1.92969 11.6836 2.13802 12.7448 2.55469 13.7734C2.97135 14.8021 3.57031 15.707 4.35156 16.4883C5.13281 17.2695 6.03776 17.8685 7.06641 18.2852C8.09505 18.7018 9.15625 18.9102 10.25 18.9102C11.3438 18.9102 12.4049 18.7018 13.4336 18.2852C14.4622 17.8685 15.3672 17.2695 16.1484 16.4883C16.9297 15.707 17.5286 14.8021 17.9453 13.7734C18.362 12.7448 18.5703 11.6836 18.5703 10.5898C18.5703 9.49609 18.362 8.4349 17.9453 7.40625C17.5286 6.3776 16.9297 5.47266 16.1484 4.69141C15.3672 3.91016 14.4622 3.3112 13.4336 2.89453C12.4049 2.47787 11.3438 2.26953 10.25 2.26953ZM13.7656 7.07422C13.2969 6.57943 12.7565 6.20833 12.1445 5.96094C11.5326 5.71354 10.901 5.58984 10.25 5.58984V10.5898L6.73438 14.1055C7.35938 14.7565 8.10156 15.1927 8.96094 15.4141C9.82031 15.6354 10.6797 15.6354 11.5391 15.4141C12.3984 15.1927 13.1471 14.763 13.7852 14.125C14.4232 13.487 14.8529 12.7383 15.0742 11.8789C15.2956 11.0195 15.2956 10.1602 15.0742 9.30078C14.8529 8.44141 14.4167 7.69922 13.7656 7.07422Z" fill="#B66DFF"/>
</svg>
