<svg width="21" height="22" viewBox="0 0 21 22" fill="none" xmlns="http://www.w3.org/2000/svg">
<path d="M15.9297 2.26953H5.07031C4.28906 2.26953 3.61198 2.55599 3.03906 3.12891C2.46615 3.70182 2.17969 4.37891 2.17969 5.16016V16.0195C2.17969 16.8008 2.46615 17.4779 3.03906 18.0508C3.61198 18.6237 4.28906 18.9102 5.07031 18.9102H13.8203L18.8203 13.9102V5.16016C18.8203 4.37891 18.5339 3.70182 17.9609 3.12891C17.388 2.55599 16.7109 2.26953 15.9297 2.26953ZM13 17.2695V16.0195C13 15.2122 13.2865 14.5221 13.8594 13.9492C14.4323 13.3763 15.1224 13.0898 15.9297 13.0898H17.1797L13 17.2695Z" fill="#B66DFF"/>
</svg>
