<svg width="15" height="16" viewBox="0 0 15 16" fill="none" xmlns="http://www.w3.org/2000/svg">
<path d="M13.3203 13.4102V1.76953H1.67969V13.4102H13.3203ZM13.3203 0.0898438C13.7891 0.0898438 14.1862 0.252604 14.5117 0.578125C14.8372 0.903646 15 1.30078 15 1.76953V13.4102C15 13.8789 14.8372 14.276 14.5117 14.6016C14.1862 14.9271 13.7891 15.0898 13.3203 15.0898H1.67969C1.21094 15.0898 0.813802 14.9271 0.488281 14.6016C0.16276 14.276 0 13.8789 0 13.4102V1.76953C0 1.30078 0.16276 0.903646 0.488281 0.578125C0.813802 0.252604 1.21094 0.0898438 1.67969 0.0898438H13.3203ZM11.4062 5.36328L10.5859 6.22266L8.86719 4.50391L9.72656 3.68359C9.80469 3.57943 9.90885 3.52734 10.0391 3.52734C10.1693 3.52734 10.2734 3.57943 10.3516 3.68359L11.4062 4.73828C11.5104 4.81641 11.5625 4.92057 11.5625 5.05078C11.5625 5.18099 11.5104 5.28516 11.4062 5.36328ZM3.32031 10.0508L8.39844 4.97266L10.1172 6.69141L5.03906 11.7695H3.32031V10.0508Z" fill="#B66DFF"/>
</svg>
