<svg width="20" height="22" viewBox="0 0 20 22" fill="none" xmlns="http://www.w3.org/2000/svg">
<path d="M15.8203 3.08984H4.17969C3.71094 3.08984 3.3138 3.2526 2.98828 3.57812C2.66276 3.90365 2.5 4.30078 2.5 4.76953V8.08984H4.17969V4.76953H15.8203V16.4102H4.17969V13.0898H2.5V16.4102C2.5 16.8789 2.66276 17.276 2.98828 17.6016C3.3138 17.9271 3.71094 18.0898 4.17969 18.0898H15.8203C16.2891 18.0898 16.6862 17.9271 17.0117 17.6016C17.3372 17.276 17.5 16.8789 17.5 16.4102V4.76953C17.5 4.30078 17.3372 3.90365 17.0117 3.57812C16.6862 3.2526 16.2891 3.08984 15.8203 3.08984ZM8.39844 13.5586L9.57031 14.7695L13.75 10.5898L9.57031 6.41016L8.39844 7.58203L10.5469 9.76953H2.5V11.4102H10.5469L8.39844 13.5586Z" fill="white"/>
</svg>
