<svg width="141" height="29" viewBox="0 0 141 29" fill="none" xmlns="http://www.w3.org/2000/svg">
<g clip-path="url(#clip0_1_6)">
<g clip-path="url(#clip1_1_6)">
<path d="M47.5356 13.8028V21.4011H42.7692V1.85698H50.4872C52.0028 1.85698 53.3191 2.13618 54.396 2.69459C55.4729 3.25299 56.2906 3.99088 56.849 4.88832C57.3875 5.8057 57.6667 6.78291 57.6667 7.83989C57.6667 8.73732 57.4473 9.63476 57.0085 10.5322C56.5698 11.4296 55.812 12.2074 54.735 12.8456C53.6581 13.4838 52.2422 13.8028 50.4672 13.8028H47.5356ZM52.2023 9.53504C52.6211 9.11624 52.8205 8.53789 52.8205 7.83989C52.8205 7.16182 52.6011 6.58348 52.1823 6.14473C51.7635 5.70598 51.1852 5.48661 50.4872 5.48661H47.5356V10.1732H50.4872C51.2251 10.1732 51.7835 9.97379 52.2023 9.53504Z" fill="url(#paint0_linear_1_6)"/>
<path d="M75.057 5.86552V21.4011H70.2906V19.1077C69.8319 19.8655 69.1937 20.4638 68.3761 20.9026C67.5783 21.3413 66.641 21.5607 65.584 21.5607C64.4074 21.5607 63.3903 21.3014 62.4729 20.763C61.5755 20.2245 60.8775 19.4667 60.359 18.4695C59.8405 17.4724 59.6011 16.2957 59.6011 14.9396V5.86552H64.3276V14.3014C64.3276 15.2986 64.5869 16.0764 65.1254 16.6348C65.6638 17.1732 66.3818 17.4524 67.3191 17.4524C68.2564 17.4524 68.9744 17.1732 69.5128 16.6348C70.0513 16.0963 70.3105 15.3185 70.3105 14.3014V5.86552H75.057Z" fill="url(#paint1_linear_1_6)"/>
<path d="M85.906 6.52366C86.6638 5.9852 87.5014 5.70599 88.4388 5.70599V10.5521H87.2621C86.1653 10.5521 85.3476 10.8114 84.7892 11.3299C84.2507 11.8484 83.9715 12.7658 83.9715 14.0621V21.4012H79.2051V5.86554H83.9715V8.75728C84.51 7.81995 85.1482 7.06212 85.906 6.52366Z" fill="url(#paint2_linear_1_6)"/>
<path d="M103.895 6.72308C104.972 7.40114 105.829 8.33846 106.467 9.55499C107.105 10.7516 107.405 12.1276 107.405 13.6832C107.405 15.2188 107.086 16.5949 106.467 17.8114C105.829 19.008 104.972 19.9453 103.895 20.6234C102.818 21.3014 101.621 21.6205 100.345 21.6205C98.4103 21.6205 96.8946 20.8029 95.7778 19.1675V28.8199H91.0314V5.88547H95.7978V7.91966C96.8547 6.46382 98.3704 5.72593 100.365 5.72593C101.641 5.70599 102.818 6.04502 103.895 6.72308ZM97.5527 10.253C97.0342 10.5322 96.6154 10.9709 96.2764 11.5293C95.9573 12.0878 95.7978 12.8057 95.7978 13.6234C95.7978 14.461 95.9573 15.159 96.2764 15.7373C96.5955 16.3157 97.0342 16.7345 97.5527 17.0336C98.0912 17.3128 98.6297 17.4724 99.1881 17.4724C99.7664 17.4724 100.305 17.3328 100.823 17.0336C101.342 16.7544 101.761 16.3157 102.08 15.7573C102.399 15.1989 102.558 14.4809 102.558 13.6633C102.558 12.8256 102.399 12.1276 102.08 11.5493C101.761 10.9709 101.322 10.5521 100.803 10.253C100.265 9.97379 99.7265 9.81425 99.1681 9.81425C98.6097 9.81425 98.0713 9.95385 97.5527 10.253Z" fill="url(#paint3_linear_1_6)"/>
<path d="M115.222 0.800003V21.4011H110.456V0.800003H115.222Z" fill="url(#paint4_linear_1_6)"/>
<path d="M133.809 15.1989H123.12C123.219 15.8769 123.519 16.4553 124.037 16.8741C124.556 17.3128 125.214 17.5322 125.991 17.5322C126.59 17.5322 127.029 17.4524 127.328 17.2729C127.627 17.0934 127.946 16.8142 128.265 16.3954H133.41C132.972 17.951 132.074 19.2074 130.738 20.1647C129.402 21.1219 127.806 21.6006 125.972 21.6006C124.496 21.6006 123.16 21.2815 121.983 20.6234C120.806 19.9652 119.889 19.0479 119.231 17.8313C118.573 16.6148 118.234 15.2188 118.234 13.6234C118.234 12.0279 118.573 10.6319 119.231 9.43532C119.889 8.23874 120.806 7.32136 121.963 6.68319C123.14 6.04501 124.456 5.72592 125.952 5.72592C127.447 5.72592 128.803 6.04501 130.02 6.66324C131.217 7.28148 132.174 8.19886 132.872 9.39544C133.57 10.592 133.909 12.0479 133.909 13.7031C133.929 14.2216 133.889 14.7202 133.809 15.1989ZM128.963 12.2074C128.883 11.4895 128.564 10.8912 128.026 10.4325C127.467 9.97378 126.789 9.75441 125.972 9.75441C125.274 9.75441 124.655 9.97378 124.137 10.4325C123.618 10.8912 123.299 11.4695 123.16 12.2074H128.963Z" fill="url(#paint5_linear_1_6)"/>
<path d="M27.0541 6.78292L17.661 2.0963C17.4217 1.97665 17.1624 1.97665 16.9231 2.0963L7.52992 6.78292C7.25072 6.92252 7.07123 7.22166 7.07123 7.52081C7.07123 7.8399 7.25072 8.1191 7.52992 8.2587L16.9231 12.9653C17.0427 13.0251 17.1624 13.045 17.302 13.045C17.4217 13.045 17.5613 13.0251 17.6809 12.9653L27.0741 8.27864C27.3533 8.13904 27.5328 7.85984 27.5328 7.54075C27.5128 7.22166 27.3333 6.92252 27.0541 6.78292ZM17.2821 11.31L9.74359 7.52081L17.2821 3.75158L24.8205 7.52081L17.2821 11.31Z" fill="url(#paint6_linear_1_6)"/>
<path d="M27.4131 16.555C27.2137 16.1561 26.7151 15.9766 26.2963 16.1761L17.282 20.7031L8.26779 16.1761C7.86893 15.9766 7.37035 16.1362 7.15098 16.555C6.95155 16.9538 7.11109 17.4524 7.5299 17.6718L16.9231 22.3584C17.0427 22.4182 17.1624 22.4382 17.302 22.4382C17.4216 22.4382 17.5612 22.4182 17.6809 22.3584L27.0741 17.6718C27.453 17.4524 27.6125 16.9538 27.4131 16.555Z" fill="url(#paint7_linear_1_6)"/>
<path d="M27.4131 11.8484C27.2137 11.4496 26.7151 11.2701 26.2963 11.4695L17.282 15.9966L8.26779 11.4895C7.86893 11.29 7.37035 11.4496 7.15098 11.8684C6.95155 12.2672 7.11109 12.7658 7.5299 12.9852L16.9231 17.6718C17.0427 17.7316 17.1624 17.7516 17.302 17.7516C17.4216 17.7516 17.5612 17.7316 17.6809 17.6718L27.0541 12.9652C27.453 12.7658 27.6125 12.2672 27.4131 11.8484Z" fill="url(#paint8_linear_1_6)"/>
</g>
</g>
<defs>
<linearGradient id="paint0_linear_1_6" x1="4.15017" y1="11.6275" x2="138.008" y2="11.6275" gradientUnits="userSpaceOnUse">
<stop offset="0.0015024" stop-color="#DA8CFF"/>
<stop offset="1" stop-color="#9A55FF"/>
</linearGradient>
<linearGradient id="paint1_linear_1_6" x1="4.15016" y1="13.7151" x2="138.008" y2="13.7151" gradientUnits="userSpaceOnUse">
<stop offset="0.0015024" stop-color="#DA8CFF"/>
<stop offset="1" stop-color="#9A55FF"/>
</linearGradient>
<linearGradient id="paint2_linear_1_6" x1="4.15021" y1="13.5481" x2="138.008" y2="13.5481" gradientUnits="userSpaceOnUse">
<stop offset="0.0015024" stop-color="#DA8CFF"/>
<stop offset="1" stop-color="#9A55FF"/>
</linearGradient>
<linearGradient id="paint3_linear_1_6" x1="4.1502" y1="17.25" x2="138.008" y2="17.25" gradientUnits="userSpaceOnUse">
<stop offset="0.0015024" stop-color="#DA8CFF"/>
<stop offset="1" stop-color="#9A55FF"/>
</linearGradient>
<linearGradient id="paint4_linear_1_6" x1="4.15036" y1="11.0987" x2="138.008" y2="11.0987" gradientUnits="userSpaceOnUse">
<stop offset="0.0015024" stop-color="#DA8CFF"/>
<stop offset="1" stop-color="#9A55FF"/>
</linearGradient>
<linearGradient id="paint5_linear_1_6" x1="4.15023" y1="13.6454" x2="138.008" y2="13.6454" gradientUnits="userSpaceOnUse">
<stop offset="0.0015024" stop-color="#DA8CFF"/>
<stop offset="1" stop-color="#9A55FF"/>
</linearGradient>
<linearGradient id="paint6_linear_1_6" x1="4.15017" y1="7.53044" x2="138.008" y2="7.53044" gradientUnits="userSpaceOnUse">
<stop offset="0.0015024" stop-color="#DA8CFF"/>
<stop offset="1" stop-color="#9A55FF"/>
</linearGradient>
<linearGradient id="paint7_linear_1_6" x1="4.15015" y1="19.2687" x2="138.008" y2="19.2687" gradientUnits="userSpaceOnUse">
<stop offset="0.0015024" stop-color="#DA8CFF"/>
<stop offset="1" stop-color="#9A55FF"/>
</linearGradient>
<linearGradient id="paint8_linear_1_6" x1="4.15015" y1="14.5734" x2="138.008" y2="14.5734" gradientUnits="userSpaceOnUse">
<stop offset="0.0015024" stop-color="#DA8CFF"/>
<stop offset="1" stop-color="#9A55FF"/>
</linearGradient>
<clipPath id="clip0_1_6">
<rect width="140" height="28" fill="white" transform="translate(0.5 0.800003)"/>
</clipPath>
<clipPath id="clip1_1_6">
<rect width="126.858" height="28" fill="white" transform="translate(7.07123 0.800003)"/>
</clipPath>
</defs>
</svg>
