<svg width="21" height="22" viewBox="0 0 21 22" fill="none" xmlns="http://www.w3.org/2000/svg">
<path d="M4.82031 6.41016C4.48177 6.41016 4.1888 6.29297 3.94141 6.05859C3.69401 5.82422 3.57031 5.53125 3.57031 5.17969C3.57031 4.82812 3.69401 4.52865 3.94141 4.28125C4.1888 4.03385 4.48828 3.91016 4.83984 3.91016C5.19141 3.91016 5.48438 4.03385 5.71875 4.28125C5.95312 4.52865 6.07031 4.82812 6.07031 5.17969C6.07031 5.53125 5.95312 5.82422 5.71875 6.05859C5.48438 6.29297 5.1849 6.41016 4.82031 6.41016ZM18.1016 10.2383L10.6016 2.73828C10.263 2.42578 9.8724 2.26953 9.42969 2.26953H3.57031C3.1276 2.26953 2.74349 2.43229 2.41797 2.75781C2.09245 3.08333 1.92969 3.46745 1.92969 3.91016V9.76953C1.92969 10.2383 2.08594 10.6289 2.39844 10.9414L9.89844 18.4414C10.237 18.7539 10.6341 18.9102 11.0898 18.9102C11.5456 18.9102 11.9297 18.7539 12.2422 18.4414L18.1016 12.582C18.4141 12.2695 18.5703 11.8854 18.5703 11.4297C18.5703 10.974 18.4141 10.5768 18.1016 10.2383Z" fill="#B66DFF"/>
</svg>
