<svg width="20" height="22" viewBox="0 0 20 22" fill="none" xmlns="http://www.w3.org/2000/svg">
<path d="M10.8984 9.26184C11.4193 8.53267 11.6797 7.72538 11.6797 6.83997C11.6797 5.95455 11.4193 5.14726 10.8984 4.41809C11.3672 4.07955 11.901 3.91028 12.5 3.91028C13.3073 3.91028 13.9974 4.19674 14.5703 4.76965C15.1432 5.34257 15.4297 6.03267 15.4297 6.83997C15.4297 7.64726 15.1432 8.33736 14.5703 8.91028C13.9974 9.4832 13.3073 9.76965 12.5 9.76965C11.901 9.76965 11.3672 9.60038 10.8984 9.26184ZM4.57031 6.83997C4.57031 6.24101 4.73958 5.70064 5.07812 5.21887C5.41667 4.7371 5.85286 4.37903 6.38672 4.14465C6.92057 3.91028 7.48047 3.85168 8.06641 3.96887C8.65234 4.08606 9.15365 4.35299 9.57031 4.76965C9.98698 5.18632 10.2539 5.68762 10.3711 6.27356C10.4883 6.8595 10.4297 7.41939 10.1953 7.95325C9.96094 8.4871 9.60286 8.9233 9.12109 9.26184C8.63932 9.60038 8.09896 9.76965 7.5 9.76965C6.69271 9.76965 6.0026 9.4832 5.42969 8.91028C4.85677 8.33736 4.57031 7.64726 4.57031 6.83997ZM6.25 6.83997C6.25 7.17851 6.3737 7.47148 6.62109 7.71887C6.86849 7.96627 7.16146 8.08997 7.5 8.08997C7.83854 8.08997 8.13151 7.96627 8.37891 7.71887C8.6263 7.47148 8.75 7.17851 8.75 6.83997C8.75 6.50142 8.6263 6.20846 8.37891 5.96106C8.13151 5.71366 7.83854 5.58997 7.5 5.58997C7.16146 5.58997 6.86849 5.71366 6.62109 5.96106C6.3737 6.20846 6.25 6.50142 6.25 6.83997ZM13.3203 14.7697V16.4103H1.67969V14.7697L1.71875 14.4181C1.77083 14.1316 1.875 13.8582 2.03125 13.5978C2.26562 13.2072 2.5651 12.8686 2.92969 12.5822C3.39844 12.2436 3.97135 11.9702 4.64844 11.7618C5.45573 11.5275 6.40625 11.4103 7.5 11.4103C9.21875 11.4103 10.5859 11.6967 11.6016 12.2697C12.3307 12.6863 12.8385 13.2332 13.125 13.9103C13.2552 14.2228 13.3203 14.5092 13.3203 14.7697ZM11.6797 14.7697C11.6016 14.353 11.276 13.9884 10.7031 13.6759C9.94792 13.2853 8.88021 13.09 7.5 13.09C6.5625 13.09 5.75521 13.1941 5.07812 13.4025C4.50521 13.5587 4.0625 13.7801 3.75 14.0665C3.48958 14.3009 3.34635 14.5353 3.32031 14.7697H11.6797ZM13.2812 11.4103C13.8021 11.8269 14.2122 12.3282 14.5117 12.9142C14.8112 13.5001 14.974 14.1186 15 14.7697V16.4103H18.3203V14.7697L18.2812 14.4572C18.2292 14.1967 18.138 13.9363 18.0078 13.6759C17.8255 13.3113 17.5651 12.9988 17.2266 12.7384C16.8359 12.3738 16.3411 12.0874 15.7422 11.879C15.0391 11.6447 14.2188 11.4884 13.2812 11.4103Z" fill="#B66DFF"/>
</svg>
