<svg width="21" height="22" viewBox="0 0 21 22" fill="none" xmlns="http://www.w3.org/2000/svg">
<path d="M16.3203 14.7695H9.67969V13.9102C9.67969 13.4154 10.0964 12.9987 10.9297 12.6602C11.6068 12.3997 12.2969 12.2695 13 12.2695C13.7031 12.2695 14.3932 12.3997 15.0703 12.6602C15.9036 12.9987 16.3203 13.4154 16.3203 13.9102V14.7695ZM13 8.08984C13.4688 8.08984 13.8659 8.2526 14.1914 8.57812C14.5169 8.90365 14.6797 9.29427 14.6797 9.75C14.6797 10.2057 14.5169 10.5964 14.1914 10.9219C13.8659 11.2474 13.4688 11.4102 13 11.4102C12.5312 11.4102 12.1341 11.2474 11.8086 10.9219C11.4831 10.5964 11.3203 10.2057 11.3203 9.75C11.3203 9.29427 11.4831 8.90365 11.8086 8.57812C12.1341 8.2526 12.5312 8.08984 13 8.08984ZM17.1797 5.58984H10.5L8.82031 3.91016H3.82031C3.3776 3.91016 2.99349 4.07292 2.66797 4.39844C2.34245 4.72396 2.17969 5.12109 2.17969 5.58984V15.5898C2.17969 16.0586 2.34245 16.4557 2.66797 16.7812C2.99349 17.1068 3.3776 17.2695 3.82031 17.2695H17.1797C17.6224 17.2695 18.0065 17.1068 18.332 16.7812C18.6576 16.4557 18.8203 16.0586 18.8203 15.5898V7.26953C18.8203 6.80078 18.6576 6.40365 18.332 6.07812C18.0065 5.7526 17.6224 5.58984 17.1797 5.58984Z" fill="#B66DFF"/>
</svg>
