<svg width="20" height="22" viewBox="0 0 20 22" fill="none" xmlns="http://www.w3.org/2000/svg">
<path d="M10.8203 11.4103H9.17969V6.41028H10.8203V11.4103ZM10.8203 14.7697H9.17969V13.09H10.8203V14.7697ZM10 2.26965C8.90625 2.26965 7.84505 2.47799 6.81641 2.89465C5.78776 3.31132 4.88281 3.91028 4.10156 4.69153C3.32031 5.47278 2.72135 6.37773 2.30469 7.40637C1.88802 8.43502 1.67969 9.49622 1.67969 10.59C1.67969 11.6837 1.88802 12.7449 2.30469 13.7736C2.72135 14.8022 3.32031 15.7072 4.10156 16.4884C4.88281 17.2697 5.78776 17.8686 6.81641 18.2853C7.84505 18.7019 8.90625 18.9103 10 18.9103C11.0938 18.9103 12.1549 18.7019 13.1836 18.2853C14.2122 17.8686 15.1172 17.2697 15.8984 16.4884C16.6797 15.7072 17.2786 14.8022 17.6953 13.7736C18.112 12.7449 18.3203 11.6837 18.3203 10.59C18.3203 9.49622 18.112 8.43502 17.6953 7.40637C17.2786 6.37773 16.6797 5.47278 15.8984 4.69153C15.1172 3.91028 14.2122 3.31132 13.1836 2.89465C12.1549 2.47799 11.0938 2.26965 10 2.26965Z" fill="#B66DFF"/>
</svg>
