<svg width="21" height="22" viewBox="0 0 21 22" fill="none" xmlns="http://www.w3.org/2000/svg">
<path d="M11.5703 8.08984H16.1797L11.5703 3.51953V8.08984ZM5.75 2.26953H12.4297L17.4297 7.26953V17.2695C17.4297 17.7122 17.2669 18.0964 16.9414 18.4219C16.6159 18.7474 16.2188 18.9102 15.75 18.9102H5.75C5.28125 18.9102 4.88411 18.7474 4.55859 18.4219C4.23307 18.0964 4.07031 17.7122 4.07031 17.2695V3.91016C4.07031 3.46745 4.23307 3.08333 4.55859 2.75781C4.88411 2.43229 5.28125 2.26953 5.75 2.26953ZM13.25 15.5898V13.9102H5.75V15.5898H13.25ZM15.75 12.2695V10.5898H5.75V12.2695H15.75Z" fill="#B66DFF"/>
</svg>
