<svg width="18" height="17" viewBox="0 0 18 17" fill="none" xmlns="http://www.w3.org/2000/svg">
<path d="M8.75 14.6056C7.73438 14.6056 6.78385 14.3647 5.89844 13.883C5.01302 13.4012 4.29688 12.7436 3.75 11.9103C3.75 11.4155 4.0625 10.9468 4.6875 10.5041C5.20833 10.1395 5.88542 9.85302 6.71875 9.64468C7.47396 9.43635 8.15104 9.33218 8.75 9.33218C9.34896 9.33218 10.026 9.43635 10.7812 9.64468C11.6146 9.85302 12.2917 10.1395 12.8125 10.5041C13.4375 10.9468 13.75 11.4155 13.75 11.9103C13.2031 12.7436 12.487 13.4012 11.6016 13.883C10.7161 14.3647 9.76562 14.6056 8.75 14.6056ZM8.75 2.76968C9.45312 2.76968 10.0456 3.01057 10.5273 3.49234C11.0091 3.97411 11.25 4.56005 11.25 5.25015C11.25 5.94026 11.0091 6.5327 10.5273 7.0275C10.0456 7.52229 9.45312 7.76968 8.75 7.76968C8.04688 7.76968 7.45443 7.52229 6.97266 7.0275C6.49089 6.5327 6.25 5.94026 6.25 5.25015C6.25 4.56005 6.49089 3.97411 6.97266 3.49234C7.45443 3.01057 8.04688 2.76968 8.75 2.76968ZM8.75 0.269684C7.65625 0.269684 6.59505 0.478018 5.56641 0.894684C4.53776 1.31135 3.63281 1.91031 2.85156 2.69156C2.07031 3.47281 1.47135 4.37776 1.05469 5.4064C0.638021 6.43505 0.429688 7.49625 0.429688 8.59C0.429688 9.68375 0.638021 10.7449 1.05469 11.7736C1.47135 12.8022 2.07031 13.7072 2.85156 14.4884C3.63281 15.2697 4.53776 15.8686 5.56641 16.2853C6.59505 16.702 7.65625 16.9103 8.75 16.9103C9.84375 16.9103 10.9049 16.702 11.9336 16.2853C12.9622 15.8686 13.8672 15.2697 14.6484 14.4884C15.4297 13.7072 16.0286 12.8022 16.4453 11.7736C16.862 10.7449 17.0703 9.68375 17.0703 8.59C17.0703 7.07958 16.6992 5.68635 15.957 4.41031C15.2148 3.13427 14.2057 2.12515 12.9297 1.38297C11.6536 0.640778 10.2604 0.269684 8.75 0.269684Z" fill="#B66DFF"/>
</svg>
