<svg width="21" height="22" viewBox="0 0 21 22" fill="none" xmlns="http://www.w3.org/2000/svg">
<path d="M13.25 3.91016C14.4479 3.91016 15.5612 4.20964 16.5898 4.80859C17.6185 5.40755 18.4323 6.22135 19.0312 7.25C19.6302 8.27865 19.9297 9.39193 19.9297 10.5898C19.9297 11.7878 19.6302 12.901 19.0312 13.9297C18.4323 14.9583 17.6185 15.7721 16.5898 16.3711C15.5612 16.9701 14.4479 17.2695 13.25 17.2695C12.0521 17.2695 10.9388 16.9701 9.91016 16.3711C8.88151 15.7721 8.06771 14.9583 7.46875 13.9297C6.86979 12.901 6.57031 11.7878 6.57031 10.5898C6.57031 9.39193 6.86979 8.27865 7.46875 7.25C8.06771 6.22135 8.88151 5.40755 9.91016 4.80859C10.9388 4.20964 12.0521 3.91016 13.25 3.91016ZM13.25 5.58984C12.3385 5.58984 11.4987 5.8112 10.7305 6.25391C9.96224 6.69661 9.35677 7.30208 8.91406 8.07031C8.47135 8.83854 8.25 9.67839 8.25 10.5898C8.25 11.5013 8.47135 12.3411 8.91406 13.1094C9.35677 13.8776 9.96224 14.4831 10.7305 14.9258C11.4987 15.3685 12.3385 15.5898 13.25 15.5898C14.1615 15.5898 15.0013 15.3685 15.7695 14.9258C16.5378 14.4831 17.1432 13.8776 17.5859 13.1094C18.0286 12.3411 18.25 11.5013 18.25 10.5898C18.25 9.67839 18.0286 8.83854 17.5859 8.07031C17.1432 7.30208 16.5378 6.69661 15.7695 6.25391C15.0013 5.8112 14.1615 5.58984 13.25 5.58984ZM12.4297 7.26953H13.6797V10.3945L15.5938 12.3477L14.7344 13.2461L12.4297 10.9414V7.26953ZM2.42969 15.5898C2.19531 15.5898 1.99349 15.5117 1.82422 15.3555C1.65495 15.1992 1.57031 15.0039 1.57031 14.7695C1.57031 14.5352 1.65495 14.3333 1.82422 14.1641C1.99349 13.9948 2.19531 13.9102 2.42969 13.9102H5.59375C5.85417 14.4831 6.17969 15.043 6.57031 15.5898H2.42969ZM3.25 11.4102C3.01562 11.4102 2.82031 11.332 2.66406 11.1758C2.50781 11.0195 2.42969 10.8242 2.42969 10.5898C2.42969 10.3555 2.50781 10.1602 2.66406 10.0039C2.82031 9.84766 3.01562 9.76953 3.25 9.76953H4.96875L4.92969 10.5898L4.96875 11.4102H3.25ZM4.07031 7.26953C3.83594 7.26953 3.64062 7.1849 3.48438 7.01562C3.32812 6.84635 3.25 6.64453 3.25 6.41016C3.25 6.17578 3.32812 5.98047 3.48438 5.82422C3.64062 5.66797 3.83594 5.58984 4.07031 5.58984H6.57031C6.17969 6.13672 5.85417 6.69661 5.59375 7.26953H4.07031Z" fill="white"/>
</svg>
